<svg width="115" height="22" viewBox="0 0 115 22" fill="none" xmlns="http://www.w3.org/2000/svg">
<g id="Group 37360">
<path id="Vector" d="M10.6071 0.154633V3.55682H8.67969C7.97582 3.55682 7.50112 3.71147 7.25558 4.02076C7.01004 4.33005 6.88728 4.79398 6.88728 5.41256V7.84822H10.4844L10.0056 11.6628H6.88728V21.4441H3.13058V11.6628H0V7.84822H3.13058V5.03884C3.13058 3.44084 3.55618 2.20153 4.40737 1.32091C5.25856 0.440296 6.39211 -1.33514e-05 7.80804 -1.33514e-05C9.01116 -1.33514e-05 9.9442 0.0515347 10.6071 0.154633Z" fill="white"/>
<path id="Vector_2" d="M38.9578 13.8794C38.9578 13.8794 39.1113 13.7183 39.4182 13.3961C39.7251 13.0739 39.8786 12.4575 39.8786 11.5468C39.8786 10.6361 39.5716 9.85861 38.9578 9.21425C38.344 8.5699 37.6033 8.24772 36.7357 8.24772C35.8681 8.24772 35.1274 8.5699 34.5136 9.21425C33.8998 9.85861 33.5928 10.6361 33.5928 11.5468C33.5928 12.4575 33.8998 13.235 34.5136 13.8794C35.1274 14.5237 35.8681 14.8459 36.7357 14.8459C37.6033 14.8459 38.344 14.5237 38.9578 13.8794ZM40.1609 7.95132C40.1609 7.95132 40.3962 8.19832 40.8668 8.69232C41.3375 9.18633 41.5728 10.1378 41.5728 11.5468C41.5728 12.9558 41.1021 14.1543 40.1609 15.1423C39.2197 16.1303 38.078 16.6243 36.7357 16.6243C35.3934 16.6243 34.2517 16.1303 33.3105 15.1423C32.3693 14.1543 31.8986 12.9558 31.8986 11.5468C31.8986 10.1378 32.3693 8.93933 33.3105 7.95132C34.2517 6.96331 35.3934 6.4693 36.7357 6.4693C38.078 6.4693 39.2197 6.96331 40.1609 7.95132ZM42.5672 5.42545C42.5672 5.42545 42.6224 5.48344 42.7329 5.59942C42.8434 5.71541 42.8986 5.93664 42.8986 6.26311C42.8986 6.58958 42.7882 6.8688 42.5672 7.10077C42.3462 7.33274 42.0802 7.44872 41.7692 7.44872C41.4582 7.44872 41.1922 7.33274 40.9712 7.10077C40.7502 6.8688 40.6397 6.58958 40.6397 6.26311C40.6397 5.93664 40.7502 5.65742 40.9712 5.42545C41.1922 5.19348 41.4582 5.0775 41.7692 5.0775C42.0802 5.0775 42.3462 5.19348 42.5672 5.42545ZM37.6749 3.42151C37.6749 3.42151 37.5327 3.42258 37.2483 3.42473C36.9638 3.42688 36.793 3.42795 36.7357 3.42795C36.6784 3.42795 36.3654 3.4258 35.7965 3.42151C35.2277 3.41721 34.796 3.41721 34.5013 3.42151C34.2067 3.4258 33.8118 3.43869 33.3166 3.46017C32.8215 3.48165 32.3999 3.5246 32.0521 3.58904C31.7043 3.65347 31.4117 3.73294 31.1743 3.82745C30.7651 3.99928 30.405 4.24843 30.094 4.5749C29.7829 4.90137 29.5456 5.2794 29.3819 5.70896C29.2919 5.95811 29.2162 6.26526 29.1548 6.63039C29.0934 6.99553 29.0525 7.43798 29.032 7.95776C29.0116 8.47754 28.9993 8.89207 28.9952 9.20136C28.9911 9.51065 28.9911 9.96385 28.9952 10.561C28.9993 11.1581 29.0013 11.4867 29.0013 11.5468C29.0013 11.607 28.9993 11.9356 28.9952 12.5327C28.9911 13.1298 28.9911 13.583 28.9952 13.8923C28.9993 14.2016 29.0116 14.6161 29.032 15.1359C29.0525 15.6556 29.0934 16.0981 29.1548 16.4632C29.2162 16.8284 29.2919 17.1355 29.3819 17.3847C29.5456 17.8142 29.7829 18.1923 30.094 18.5187C30.405 18.8452 30.7651 19.0943 31.1743 19.2662C31.4117 19.3607 31.7043 19.4402 32.0521 19.5046C32.3999 19.569 32.8215 19.612 33.3166 19.6335C33.8118 19.6549 34.2067 19.6678 34.5013 19.6721C34.796 19.6764 35.2277 19.6764 35.7965 19.6721C36.3654 19.6678 36.6784 19.6657 36.7357 19.6657C36.793 19.6657 37.1061 19.6678 37.6749 19.6721C38.2437 19.6764 38.6754 19.6764 38.9701 19.6721C39.2647 19.6678 39.6596 19.6549 40.1548 19.6335C40.65 19.612 41.0715 19.569 41.4193 19.5046C41.7671 19.4402 42.0597 19.3607 42.2971 19.2662C42.7063 19.0943 43.0664 18.8452 43.3774 18.5187C43.6885 18.1923 43.9258 17.8142 44.0895 17.3847C44.1795 17.1355 44.2552 16.8284 44.3166 16.4632C44.378 16.0981 44.4189 15.6556 44.4394 15.1359C44.4598 14.6161 44.4721 14.2016 44.4762 13.8923C44.4803 13.583 44.4803 13.1298 44.4762 12.5327C44.4721 11.9356 44.4701 11.607 44.4701 11.5468C44.4701 11.4867 44.4721 11.1581 44.4762 10.561C44.4803 9.96385 44.4803 9.51065 44.4762 9.20136C44.4721 8.89207 44.4598 8.47754 44.4394 7.95776C44.4189 7.43798 44.378 6.99553 44.3166 6.63039C44.2552 6.26526 44.1795 5.95811 44.0895 5.70896C43.9258 5.2794 43.6885 4.90137 43.3774 4.5749C43.0664 4.24843 42.7063 3.99928 42.2971 3.82745C42.0597 3.73294 41.7671 3.65347 41.4193 3.58904C41.0715 3.5246 40.65 3.48165 40.1548 3.46017C39.6596 3.43869 39.2647 3.4258 38.9701 3.42151C38.6754 3.41721 38.2437 3.41721 37.6749 3.42151ZM46.1029 7.46161C46.1438 8.21765 46.1643 9.57938 46.1643 11.5468C46.1643 13.5142 46.1438 14.876 46.1029 15.632C46.021 17.419 45.5136 18.8022 44.5806 19.7817C43.6475 20.7611 42.3298 21.2937 40.6274 21.3797C39.9072 21.4226 38.61 21.4441 36.7357 21.4441C34.8614 21.4441 33.5642 21.4226 32.844 21.3797C31.1416 21.2937 29.8239 20.7611 28.8908 19.7817C27.9578 18.8022 27.4504 17.419 27.3685 15.632C27.3276 14.876 27.3071 13.5142 27.3071 11.5468C27.3071 9.57938 27.3276 8.21765 27.3685 7.46161C27.4504 5.6746 27.9578 4.29139 28.8908 3.31197C29.8239 2.33255 31.1416 1.79988 32.844 1.71397C33.5642 1.67101 34.8614 1.64953 36.7357 1.64953C38.61 1.64953 39.9072 1.67101 40.6274 1.71397C42.3298 1.79988 43.6475 2.33255 44.5806 3.31197C45.5136 4.29139 46.021 5.6746 46.1029 7.46161Z" fill="white"/>
<path id="Vector_3" d="M69.6245 15.2837L75.5665 12.062L69.6245 8.80152V15.2837ZM71.8957 4.17506C73.2707 4.17506 74.5986 4.19439 75.8795 4.23305C77.1604 4.27171 78.0996 4.31252 78.697 4.35548L79.5932 4.40703C79.6014 4.40703 79.671 4.41347 79.8019 4.42636C79.9329 4.43924 80.027 4.45213 80.0843 4.46502C80.1416 4.47791 80.2378 4.49724 80.3728 4.52301C80.5079 4.54878 80.6245 4.58315 80.7227 4.62611C80.8209 4.66906 80.9355 4.72491 81.0665 4.79364C81.1974 4.86237 81.3243 4.94614 81.447 5.04494C81.5698 5.14374 81.6885 5.25757 81.8031 5.38644C81.8522 5.43799 81.9156 5.51746 81.9934 5.62486C82.0711 5.73225 82.1898 5.98355 82.3494 6.37875C82.509 6.77395 82.6174 7.20782 82.6747 7.68034C82.7402 8.23019 82.7913 8.81656 82.8282 9.43943C82.865 10.0623 82.8875 10.5499 82.8957 10.9021V11.4176V13.1702C82.9039 14.416 82.8302 15.6617 82.6747 16.9075C82.6174 17.38 82.5151 17.8074 82.3678 18.1898C82.2205 18.5721 82.0895 18.8363 81.9749 18.9823L81.8031 19.2014C81.6885 19.3303 81.5698 19.4441 81.447 19.5429C81.3243 19.6417 81.1974 19.7233 81.0665 19.7878C80.9355 19.8522 80.8209 19.9059 80.7227 19.9488C80.6245 19.9918 80.5079 20.0262 80.3728 20.0519C80.2378 20.0777 80.1396 20.097 80.0782 20.1099C80.0168 20.1228 79.9227 20.1357 79.7958 20.1486C79.6689 20.1615 79.6014 20.1679 79.5932 20.1679C77.5389 20.3312 74.9731 20.4128 71.8957 20.4128C70.2015 20.3956 68.7303 20.3677 67.4822 20.329C66.234 20.2904 65.4136 20.2581 65.0207 20.2324L64.4191 20.1808L63.9772 20.1293C63.6825 20.0863 63.4595 20.0434 63.3081 20.0004C63.1567 19.9574 62.948 19.8672 62.682 19.7298C62.416 19.5923 62.1848 19.4162 61.9883 19.2014C61.9392 19.1498 61.8758 19.0704 61.798 18.963C61.7203 18.8556 61.6016 18.6043 61.442 18.2091C61.2824 17.8139 61.174 17.38 61.1167 16.9075C61.0512 16.3576 61 15.7713 60.9632 15.1484C60.9264 14.5255 60.9039 14.038 60.8957 13.6857V13.1702V11.4176C60.8875 10.1718 60.9612 8.9261 61.1167 7.68034C61.174 7.20782 61.2763 6.7804 61.4236 6.39808C61.5709 6.01576 61.7019 5.75158 61.8165 5.60553L61.9883 5.38644C62.1029 5.25757 62.2216 5.14374 62.3444 5.04494C62.4671 4.94614 62.594 4.86237 62.7249 4.79364C62.8559 4.72491 62.9705 4.66906 63.0687 4.62611C63.1669 4.58315 63.2835 4.54878 63.4186 4.52301C63.5536 4.49724 63.6498 4.47791 63.7071 4.46502C63.7644 4.45213 63.8585 4.43924 63.9894 4.42636C64.1204 4.41347 64.19 4.40703 64.1981 4.40703C66.2525 4.25238 68.8183 4.17506 71.8957 4.17506Z" fill="white"/>
<path id="Vector_4" d="M114.919 16.5982C114.919 16.8302 114.878 17.133 114.796 17.5067C114.714 17.8805 114.628 18.1747 114.538 18.3895C114.366 18.8191 113.867 19.2744 113.04 19.7555C112.271 20.1937 111.51 20.4128 110.757 20.4128C110.536 20.4128 110.319 20.3977 110.106 20.3677C109.893 20.3376 109.658 20.2839 109.4 20.2066C109.142 20.1293 108.95 20.067 108.823 20.0197C108.696 19.9725 108.469 19.8844 108.142 19.7555C107.814 19.6267 107.614 19.5493 107.54 19.5236C106.738 19.2229 106.022 18.8663 105.392 18.4539C104.352 17.7752 103.272 16.8474 102.151 15.6703C101.029 14.4933 100.145 13.3593 99.4989 12.2681C99.106 11.6066 98.7664 10.8549 98.4799 10.0129C98.4554 9.93559 98.3817 9.7251 98.2589 9.38144C98.1362 9.03779 98.0523 8.79937 98.0073 8.66621C97.9622 8.53304 97.9029 8.33114 97.8292 8.06052C97.7556 7.78989 97.7044 7.54288 97.6758 7.31951C97.6471 7.09613 97.6328 6.86846 97.6328 6.63649C97.6328 5.84609 97.8415 5.04709 98.2589 4.2395C98.7173 3.37177 99.151 2.84769 99.5603 2.66727C99.7649 2.57277 100.045 2.48256 100.401 2.39664C100.757 2.31073 101.046 2.26777 101.267 2.26777C101.381 2.26777 101.467 2.28066 101.525 2.30643C101.672 2.35798 101.889 2.68446 102.175 3.28585C102.265 3.44909 102.388 3.68106 102.544 3.98175C102.699 4.28245 102.842 4.55523 102.973 4.80008C103.104 5.04494 103.231 5.27476 103.354 5.48954C103.378 5.52391 103.45 5.6313 103.569 5.81172C103.687 5.99214 103.775 6.14464 103.833 6.26921C103.89 6.39379 103.919 6.51621 103.919 6.63649C103.919 6.80832 103.802 7.02311 103.569 7.28085C103.335 7.53859 103.082 7.77485 102.807 7.98964C102.533 8.20442 102.28 8.43209 102.046 8.67265C101.813 8.91321 101.696 9.11081 101.696 9.26546C101.696 9.34278 101.717 9.43943 101.758 9.55542C101.799 9.6714 101.834 9.75946 101.862 9.8196C101.891 9.87974 101.948 9.98284 102.034 10.1289C102.12 10.2749 102.167 10.3566 102.175 10.3737C102.797 11.5508 103.509 12.5603 104.311 13.4022C105.113 14.2442 106.075 14.9916 107.196 15.6446C107.213 15.6532 107.291 15.7026 107.43 15.7928C107.569 15.883 107.667 15.9431 107.724 15.9732C107.782 16.0033 107.866 16.0398 107.976 16.0827C108.086 16.1257 108.179 16.1472 108.252 16.1472C108.4 16.1472 108.588 16.0247 108.817 15.7799C109.046 15.535 109.263 15.2687 109.468 14.9809C109.672 14.6931 109.897 14.4267 110.143 14.1819C110.388 13.937 110.593 13.8146 110.757 13.8146C110.871 13.8146 110.988 13.8447 111.107 13.9048C111.225 13.9649 111.371 14.0573 111.542 14.1819C111.714 14.3065 111.817 14.3816 111.849 14.4074C112.054 14.5363 112.273 14.6694 112.506 14.8069C112.739 14.9444 112.999 15.0947 113.286 15.2579C113.572 15.4212 113.793 15.5501 113.949 15.6446C114.522 15.9453 114.833 16.1729 114.882 16.3276C114.906 16.3877 114.919 16.4779 114.919 16.5982Z" fill="white"/>
</g>
</svg>
